<svg width="221" height="221" viewBox="0 0 221 221" fill="none" xmlns="http://www.w3.org/2000/svg">
<path d="M22.8265 105.836L0 102.607L2.31193 86.286L6.08179 86.816L4.41036 98.6169L10.4982 99.4759L11.7915 90.3556L15.4881 90.8796L14.1949 99.9998L23.4731 101.31L22.8326 105.83L22.8265 105.836Z" fill="white"/>
<path d="M30.6895 74.3754C29.9392 74.6008 28.3654 74.3145 25.901 73.5773C23.406 72.8279 21.8932 73.5042 20.9599 75.9655L19.0323 81.0222L27.0051 84.0501L25.4069 88.2538L3.84915 80.0718L7.55801 70.3301C9.65034 64.8287 13.2433 63.1046 17.251 64.6216C20.5024 65.8522 21.576 68.6912 20.9172 71.4511C22.3324 69.1725 24.2478 68.4536 26.8709 69.1725C30.1588 70.1047 31.2934 70.4215 32.3488 70.0011L30.6834 74.3754H30.6895ZM17.5682 74.7958C18.7517 71.6887 18.2698 69.861 15.9456 68.9776C13.7923 68.1612 11.9806 69.1116 10.7972 72.2248L8.91222 77.1779L15.6894 79.7489L17.5743 74.7958H17.5682Z" fill="white"/>
<path d="M43.2069 54.094L33.5078 68.3257L14.4511 55.3673L23.9672 41.4097L27.1149 43.5481L20.1303 53.7894L24.7602 56.9391L30.2381 48.9033L33.3553 51.0234L27.8774 59.0592L32.8978 62.4771L40.0654 51.9617L43.213 54.1001L43.2069 54.094Z" fill="white"/>
<path d="M57.3103 40.6969L44.7258 52.4612L28.9693 35.6463L41.3159 24.1074L43.9145 26.8855L34.8559 35.3539L38.6806 39.4358L45.7872 32.789L48.3615 35.5367L41.2549 42.1834L45.409 46.6126L54.7117 37.9188L57.3103 40.6969Z" fill="white"/>
<path d="M71.8285 32.2346L63.7886 14.7618L56.3709 18.1674L54.7788 14.713L73.8659 5.95223L75.4581 9.40659L67.9427 12.8549L75.9827 30.3277L71.8285 32.2346Z" fill="white"/>
<path d="M84.4496 26.5992L80.3015 3.94784L84.8034 3.12538L86.4931 12.3675L97.6929 10.3265L96.0032 1.08444L100.505 0.261971L104.653 22.9133L100.151 23.7358L98.3761 14.0246L87.1763 16.0655L88.9515 25.7767L84.4496 26.5992Z" fill="white"/>
<path d="M124.918 24.0526L107.709 22.9864L109.143 0L126.022 1.04788L125.784 4.84342L113.401 4.07578L113.053 9.65638L122.77 10.2595L122.539 14.0185L112.821 13.4154L112.443 19.4712L125.155 20.2632L124.918 24.0587V24.0526Z" fill="white"/>
<path d="M140.448 19.5808C139.295 22.9743 141.113 25.4295 144.108 26.6175C146.762 27.6715 148.879 27.2937 149.598 25.4904C150.245 23.8576 149.196 22.7367 147.128 21.4024L143.346 19.0325C140.253 17.1012 138.673 14.3475 140.076 10.8139C141.668 6.80516 145.859 5.47702 150.861 7.46313C156.473 9.69293 158.486 13.8357 156.662 18.6182L152.697 17.1987C153.722 14.2256 152.429 11.941 149.501 10.7774C146.982 9.77822 145.109 10.3326 144.377 12.1664C143.755 13.7261 144.664 14.7191 146.451 15.8584L150.111 18.1369C154.015 20.5921 155.192 23.3764 153.814 26.8429C152.136 31.0527 147.592 31.8874 142.76 29.9683C137.252 27.7811 134.403 23.3459 136.459 18.1857L140.436 19.5686L140.448 19.5808Z" fill="white"/>
<path d="M158.377 37.6142L169.387 21.8472L162.695 17.1865L164.873 14.0672L182.106 26.0692L179.928 29.1884L173.145 24.4608L162.134 40.2278L158.383 37.6142H158.377Z" fill="white"/>
<path d="M179.507 56.9086C179.66 56.141 180.642 54.8799 182.435 53.0461C184.259 51.1879 184.357 49.5369 182.612 47.5691L179.019 43.5177L172.639 49.1653L169.649 45.8023L186.907 30.5288L193.824 38.327C197.734 42.7317 197.594 46.7101 194.391 49.5491C191.787 51.852 188.779 51.4925 186.632 49.6222C187.999 51.9312 187.742 53.9599 185.888 55.9461C183.533 58.4195 182.734 59.2786 182.612 60.4117L179.507 56.9086ZM185.223 45.1078C187.431 47.5995 189.273 48.0199 191.134 46.3689C192.86 44.8397 192.854 42.7927 190.646 40.307L187.126 36.3409L181.703 41.1416L185.223 45.1078Z" fill="white"/>
<path d="M205.719 54.8494L186.077 66.9001L183.686 63.0071L203.328 50.9564L205.725 54.8494H205.719Z" fill="white"/>
<path d="M209.8 61.5145L212.948 69.6234C215.638 76.5443 213.277 82.393 206.555 85.0005C199.833 87.6019 194.141 84.8725 191.451 77.9516L188.304 69.8427L209.8 61.5145ZM194.757 76.3615C196.52 80.8942 200.241 82.3929 204.884 80.5957C209.459 78.8228 211.191 75.2101 209.434 70.6774L208.043 67.1011L193.373 72.7853L194.764 76.3615H194.757Z" fill="white"/>
<path d="M198.18 108.121L195.959 91.0502L218.822 88.0832L221 104.831L217.224 105.318L215.626 93.0302L210.075 93.7491L211.331 103.393L207.592 103.881L206.335 94.2365L200.309 95.0163L201.949 107.627L198.173 108.115L198.18 108.121Z" fill="white"/>
<path d="M3.09884 137.785L24.9981 130.583L30.1588 146.241L26.5415 147.429L22.8082 136.109L16.9704 138.028L19.8558 146.777L16.3116 147.941L13.4263 139.192L4.52626 142.116L3.09274 137.778L3.09884 137.785Z" fill="white"/>
<path d="M18.526 172.005C18.8127 171.28 20.0144 170.22 22.1189 168.746C24.2539 167.253 24.6565 165.651 23.3023 163.391L20.5146 158.748L13.2006 163.129L10.8826 159.272L30.659 147.423L36.0271 156.354C39.0588 161.399 38.1926 165.285 34.5204 167.491C31.5374 169.276 28.646 168.368 26.8831 166.144C27.7981 168.667 27.1759 170.616 24.986 172.225C22.2165 174.223 21.271 174.917 20.9416 176.008L18.5321 171.993L18.526 172.005ZM26.3158 161.453C28.0299 164.305 29.7623 165.06 31.8973 163.781C33.8738 162.599 34.2459 160.582 32.5318 157.731L29.7989 153.186L23.5829 156.908L26.3158 161.453Z" fill="white"/>
<path d="M37.6802 194.035L25.6387 181.717L42.1394 165.627L53.9553 177.714L51.2285 180.37L42.5603 171.5L38.5525 175.405L45.3541 182.362L42.6579 184.994L35.8563 178.037L31.5069 182.277L40.407 191.379L37.6802 194.035Z" fill="white"/>
<path d="M57.8471 207.987L43.3899 198.605L55.9561 179.298L70.1327 188.503L68.0587 191.69L57.658 184.939L54.608 189.631L62.7699 194.931L60.7141 198.087L52.5522 192.786L49.2399 197.873L59.9211 204.807L57.8471 207.993V207.987Z" fill="white"/>
<path d="M80.3991 216.748L85.2243 198.129L77.3247 196.088L78.2763 192.409L98.614 197.666L97.6624 201.346L89.653 199.275L84.8278 217.893L80.3991 216.748Z" fill="white"/>
<path d="M99.3765 220.671L99.7547 197.642L104.33 197.715L104.177 207.109L115.56 207.292L115.713 197.898L120.288 197.971L119.909 221L115.334 220.927L115.493 211.057L104.11 210.875L103.952 220.744L99.3765 220.671Z" fill="white"/>
<path d="M145.335 215.596L128.584 219.666L123.136 197.289L139.57 193.298L140.467 196.99L128.413 199.914L129.737 205.349L139.198 203.052L140.088 206.707L130.627 209.004L132.061 214.902L144.438 211.898L145.335 215.59V215.596Z" fill="white"/>
<path d="M170.04 203.405L155.253 191.477L155.131 191.556L165.233 206.622L161.707 208.98L148.879 189.844L154.869 185.835L168.393 196.935L168.484 196.874L163.141 180.297L169.009 176.374L181.837 195.51L178.007 198.075L167.905 183.008L167.783 183.087L173.291 201.224L170.04 203.399V203.405Z" fill="white"/>
<path d="M174.243 170.153L190.676 186.31L187.468 189.563L171.034 173.407L174.243 170.153Z" fill="white"/>
<path d="M198.478 163.683L185.778 155.032L188.169 151.529L207.22 164.5L205.158 167.521L185.095 168.106L198.521 177.251L196.13 180.754L177.079 167.783L179.635 164.037L198.478 163.683Z" fill="white"/>
<path d="M189.475 148.976L192.378 140.776C194.855 133.782 200.467 130.876 207.263 133.282C214.058 135.683 216.59 141.464 214.113 148.464L211.209 156.665L189.469 148.982L189.475 148.976ZM210.569 147.514C212.191 142.933 210.349 139.369 205.658 137.711C201.034 136.079 197.356 137.687 195.733 142.269L194.452 145.887L209.288 151.133L210.569 147.514Z" fill="white"/>
</svg>
