<?xml version="1.0" encoding="UTF-8"?>
<svg id="Layer_2" data-name="Layer 2" xmlns="http://www.w3.org/2000/svg" viewBox="0 0 2426.5 478.03">
  <defs>
    <style>
      .cls-1 {
        fill-rule: evenodd;
      }
    </style>
  </defs>
  <g id="Layer_1-2" data-name="Layer 1">
    <path class="cls-1" d="M471.41,236.54h-14.88c-26.47,0-47.98,19.83-47.98,46.3,0,21.5,6.61,46.3,34.75,46.3,24.81,0,29.77-19.83,29.77-39.7v-49.62s1.65-3.28-1.66-3.28h0ZM1225.14,478.03h-52.1c-37.39-4.46-69.78-18.74-69.78-52.94,0-24.8,28.11-42.98,51.28-46.3,0,0,6.61-1.65,0-1.65-8.27-1.67-52.93-4.97-67.82-1.67,0,0-3.31,0-4.97-3.29-1.65-3.32-9.92-26.47-11.58-28.12-1.65-3.32,1.65-4.97,1.65-4.97,33.09-4.97,62.85-21.5,76.08-26.47,8.27-1.65,0-3.29,0-3.29-46.3-8.29-92.63-39.7-92.63-94.29,0-77.74,64.51-112.47,125.7-112.47,28.12,0,44.65,4.97,59.54,6.61,0,0,1.65,1.66,3.32-1.65,0-4.97,4.94-18.2,4.94-18.2,6.64-19.84,16.54-28.12,46.33-28.12,6.61,0,13.23,0,18.18,1.66,0,0,3.32-1.66,3.32,3.31-1.67,1.65-11.61,41.35-11.61,42.99-1.65,4.97-3.29,1.66-3.29,1.66-4.97-3.31-6.61-4.97-18.18-3.31-6.64,0-9.93,4.95-9.93,11.58,0,11.58,52.92,28.12,52.92,90.97,0,84.36-77.74,102.54-145.55,119.09,0,0-6.61,1.65,0,1.65,44.65,4.97,137.28,16.54,137.28,74.45.04,48.75-54.36,67.55-93.11,72.77h0ZM577.27,344.05h13.23c3.31,0,3.31,3.29,3.31,3.29v26.47c0,4.97-4.95,3.32-4.95,3.32h-105.86s-1.66,0-1.66-3.32c-1.65-6.61-4.95-13.23-4.95-18.18-1.65-6.61-4.97,0-4.97,0-21.5,16.54-46.32,29.77-76.08,29.77-49.62,0-87.66-31.41-87.66-82.71,0-62.85,39.7-97.57,89.32-97.57l76.08-3.31v-11.57c0-21.5-11.58-31.43-36.39-31.43-31.43,0-46.3,11.58-61.19,29.77,0,0,0,1.65-3.31,1.65-3.31-1.65-29.77-11.58-29.77-11.58,0,0-3.31,0-1.65-3.31s34.73-82.7,34.73-82.7c0,0,0-3.31,1.65-1.65,4.95,1.65,24.81,8.27,29.77,8.27,3.31,1.65,1.65,4.95,1.65,4.95l-3.31,6.61c-1.65,6.61,1.65,3.31,1.65,3.31,21.5-8.27,43.01-11.58,64.51-11.58,62.85,0,104.21,26.47,104.21,90.97v145.56s-.01,4.95,1.65,4.95h0ZM583.89,122.4c42.99-11.58,79.39-39.7,97.58-79.4,0,0,0-1.65,3.31-1.65s24.81,4.97,28.12,4.97c3.31,1.65,1.65,3.31,1.65,3.31-1.65,13.24-3.31,28.12-3.31,39.7v19.84c0,3.31,3.31,1.66,3.31,1.66h44.65c3.31,0,1.65,3.31,1.65,3.31,0,0-6.61,33.09-6.61,36.39-1.65,3.31-3.31,3.31-3.31,3.31h-36.39c-3.32,0-3.31,1.66-3.31,1.66v153.83c0,18.18,14.89,21.48,23.16,21.48s9.92,0,16.54-3.29c0,0,3.31-3.32,3.31,0,1.65,3.29,9.92,24.8,11.58,28.12,1.65,1.65-1.66,3.29-1.66,3.29-34.73,24.82-38.04,26.47-84.36,26.47-51.27,0-69.47-24.8-69.47-71.1v-158.81s0-1.66-3.31-1.66h-23.15s-1.66,0-1.66-3.31v-24.81c.01-1.65,1.67-3.31,1.67-3.31h0ZM1338.12,243.14c0-86.02,67.82-140.59,157.15-140.59s158.78,54.58,158.78,140.59-69.48,142.24-158.78,142.24-157.15-52.92-157.15-142.24ZM1440.68,205.1c0,39.7,16.54,138.95,72.77,138.95,29.77,0,38.03-31.44,38.03-61.2,0-39.7-16.51-138.93-74.42-138.93-36.38-.01-36.38,41.33-36.38,61.19ZM1968.32,377.12h-138.95s-1.65,0-1.65-1.67v-28.12c0-3.29,3.29-3.29,3.29-3.29h16.54c1.67,0,1.67-1.65,1.67-1.65v-150.51c0-16.54-14.89-23.16-29.79-23.16-18.18,0-31.41,8.27-44.65,19.84,0,0-1.65,1.65-1.65,3.31v150.53s0,1.65,1.65,1.65h18.21s1.65,0,1.65,3.29v28.12c0,1.67-1.65,1.67-1.65,1.67h-138.95s-1.65,1.65-1.65-3.32v-26.47c0-3.29,1.65-3.29,1.65-3.29h14.86c3.32,0,1.67-1.65,1.67-1.65v-176.99s1.65-3.31-1.67-3.31l-14.86,4.97s-1.65,1.65-1.65-1.65v-28.12c0-3.31,1.65-1.65,1.65-1.65l117.44-31.43s3.29-1.65,3.29,1.65v38.05c0,4.95,1.67,1.65,1.67,1.65,28.12-21.5,56.24-43.01,94.26-43.01,71.13,0,81.06,47.96,81.06,77.74v162.11s-1.65,1.65,1.65,1.65h14.89s1.65,0,1.65,3.29v26.47c0,4.94-1.65,3.29-1.65,3.29h0ZM2108.91,104.2l-117.44,31.43s-1.65,0-1.65,3.31v26.47c0,3.31,3.29,1.65,3.29,1.65,0,0,8.29-1.65,14.89-3.31,3.32,0,1.65,3.31,1.65,4.95v173.69s1.67,1.65-1.65,1.65h-16.54s-3.32,0-3.32,3.29v28.12c0,3.32,3.32,1.67,3.32,1.67h137.3c3.29,0,1.65-3.32,1.65-3.32v-26.47c0-3.29-3.32-3.29-3.32-3.29h-13.23c-3.32,0-1.65-1.65-1.65-1.65V105.85c0-3.31-3.31-1.65-3.31-1.65h0ZM2067.56,21.5c23.15,0,49.6,6.61,49.6,34.73,0,33.09-44.63,46.32-72.75,46.32-23.18,0-38.05-11.58-38.05-34.73,0-26.47,36.38-46.32,61.2-46.32ZM931.23,236.54h-13.24c-28.12,0-47.96,19.83-47.96,46.3,0,21.5,6.61,46.3,33.09,46.3s31.43-19.83,31.43-39.7v-49.62s0-3.28-3.31-3.28h0ZM1038.75,344.05h11.58c4.95,0,4.95,3.29,4.95,3.29v26.47c0,4.97-4.95,3.32-4.95,3.32h-105.86s-1.66,0-3.31-3.32c-1.65-6.61-3.31-13.23-3.31-18.18-1.65-6.61-4.95,0-4.95,0-23.16,16.54-46.32,29.77-76.09,29.77-51.27,0-89.31-31.41-89.31-82.71,0-62.85,41.35-99.23,90.97-99.23l74.43-1.66s1.65,0,1.65-3.29v-8.27c0-21.5-11.58-31.43-36.39-31.43-31.43,0-46.32,11.58-61.2,29.77,0,0-1.65,1.65-3.31,0-3.31,0-31.43-9.92-31.43-9.92,0,0-1.65,0,0-3.31s33.09-82.7,33.09-82.7c0,0,0-3.31,3.31-1.65,3.31,1.65,24.81,8.27,28.12,8.27,3.31,1.65,1.65,4.95,1.65,4.95,0,0,0,3.31-1.65,6.61-3.31,6.61,1.65,3.31,1.65,3.31,21.5-8.27,43.01-11.58,64.51-11.58,62.85,0,104.21,26.47,104.21,90.97v145.56s-1.67,4.95,1.65,4.95h0ZM1147.9,173.68c0,29.77,16.54,110.81,57.9,110.81,21.52,0,29.77-9.93,29.77-36.38,0-29.78-18.2-110.83-59.54-110.83-19.84,0-28.12,9.92-28.12,36.39h0ZM1190.91,390.35c-4.95,4.97-8.26,23.15-8.26,34.73,0,13.24,6.61,28.12,23.15,28.12,13.24,0,21.52-6.61,21.52-19.83,0-24.82-14.9-33.09-33.09-44.65,0-.01-1.66-.01-3.32,1.63ZM2294.16,236.54h-13.23c-28.12,0-47.98,19.83-47.98,46.3,0,21.5,6.61,46.3,33.09,46.3s31.44-19.83,31.44-39.7v-49.62s0-3.28-3.32-3.28h0ZM2401.66,344.05h13.24c3.29,0,3.29,3.29,3.29,3.29v26.47c0,4.97-4.97,3.32-4.97,3.32h-105.86s-1.65,0-3.29-3.32c-1.65-6.61-3.32-13.23-3.32-18.18-1.65-6.61-4.97,0-4.97,0-23.15,16.54-46.3,29.77-76.07,29.77-51.27,0-89.32-31.41-89.32-82.71,0-62.85,41.35-99.23,90.97-99.23l74.42-1.66s1.67,0,1.67-3.29v-8.27c0-21.5-11.58-31.43-36.41-31.43-31.41,0-46.3,11.58-61.2,29.77,0,0-1.65,1.65-3.29,0-3.32,0-29.79-9.92-29.79-9.92,0,0-3.29,0-1.65-3.31s33.09-82.7,33.09-82.7c0,0,0-3.31,3.32-1.65s24.8,8.27,28.12,8.27c3.31,1.62,3.31,4.93,3.31,4.93l-3.29,6.61c-3.32,6.61,1.65,3.31,1.65,3.31,21.5-8.27,43.01-11.58,64.5-11.58,62.88,0,104.21,26.47,104.21,90.97v145.56s0,4.98,1.65,4.98h0ZM122.41,167.06v133.98c0,23.15,8.27,43.01,34.73,43.01,33.09,0,47.98-19.86,47.98-81.06,0-97.57-49.62-102.54-66.16-102.54l-13.24,1.65s-3.31,1.66-3.31,4.97h0ZM124.06,127.36c24.81-14.89,43.01-24.81,67.82-24.81,64.51,0,115.78,52.93,115.78,130.67s-47.96,152.16-130.67,152.16c-16.54,0-38.04-1.65-52.93-9.93,0,0-1.65,0-1.65,1.67v47.95s0,3.32,3.31,3.32h29.77s3.31,0,3.31,3.32v26.45c0,1.67-3.31,3.32-3.31,3.32H4.97s-4.97,0-4.97-3.32v-26.32c0-3.32,3.31-3.32,3.31-3.32h13.23c3.31,0,3.31-3.32,3.31-3.32V165.53c0-3.31-3.31-1.65-3.31-1.65l-13.23,3.31s-3.31,0-3.31-3.31v-26.48c0-3.31,3.31-3.31,3.31-3.31l115.78-29.77s3.31-1.65,3.31,1.65v19.84c.01,3.19,1.66,1.54,1.66,1.54h0ZM2353.71,36.39c0-19.86,16.54-36.39,36.38-36.39s36.41,16.54,36.41,36.39c0,21.5-16.54,38.04-36.41,38.04s-36.38-16.54-36.38-38.04ZM2421.52,36.39c0-16.54-13.24-31.43-31.44-31.43s-33.09,14.89-33.09,31.43c0,18.2,14.89,33.07,33.09,33.07s31.44-14.88,31.44-33.07ZM2408.28,57.9h-6.61l-11.58-19.84h-8.26v19.84h-4.97V16.55h16.54c3.29,0,8.26,0,9.93,1.66,3.29,1.65,4.94,6.61,4.94,9.92,0,6.63-4.94,9.93-13.23,9.93l13.24,19.83h0ZM2388.43,34.73c6.61,0,14.89,1.65,14.89-6.63,0-6.61-4.97-8.26-9.93-8.26h-11.58v14.89h6.63Z"/>
  </g>
</svg>